<?xml version="1.0" standalone="no"?>
<!DOCTYPE svg PUBLIC "-//W3C//DTD SVG 20010904//EN"
 "http://www.w3.org/TR/2001/REC-SVG-20010904/DTD/svg10.dtd">
<svg version="1.0" xmlns="http://www.w3.org/2000/svg"
 width="256.000000pt" height="256.000000pt" viewBox="0 0 256.000000 256.000000"
 preserveAspectRatio="xMidYMid meet">
<metadata>
Created by potrace 1.14, written by Peter Selinger 2001-2017
</metadata>
<g transform="translate(0.000000,256.000000) scale(0.100000,-0.100000)"
fill="#000000" stroke="none">
<path d="M1097 2298 c-64 -13 -121 -52 -160 -108 -8 -12 -30 -24 -48 -27 -103
-16 -167 -99 -157 -204 3 -27 2 -52 -2 -54 -4 -3 -25 -7 -46 -11 -104 -16
-167 -132 -120 -222 23 -45 20 -59 -17 -71 -59 -20 -107 -84 -107 -145 0 -47
13 -77 50 -119 l30 -35 -26 -31 c-27 -33 -41 -93 -30 -136 4 -14 20 -38 36
-54 17 -15 30 -31 30 -33 0 -3 -18 -23 -39 -45 -81 -81 -63 -202 37 -251 21
-10 44 -18 52 -17 31 3 37 -13 26 -64 -17 -87 21 -167 97 -201 38 -17 54 -18
147 -8 22 3 25 -2 31 -43 9 -59 32 -102 66 -127 69 -48 144 -48 211 -2 23 17
45 30 47 30 2 0 24 -14 47 -30 53 -37 81 -43 123 -26 23 10 36 24 44 48 8 23
10 293 8 913 l-2 880 -27 52 c-58 110 -180 167 -301 141z m-77 -313 c17 -20 6
-31 -44 -44 -56 -14 -96 -59 -96 -107 0 -22 -6 -37 -16 -41 -26 -10 -37 12
-30 62 10 61 53 110 115 129 59 19 56 19 71 1z m255 -65 c21 -47 26 -95 12
-135 -12 -36 -45 -75 -64 -75 -23 0 -26 28 -4 51 36 39 38 83 5 152 -15 32
-16 40 -5 47 22 13 37 2 56 -40z m-359 -315 c3 -8 -1 -22 -10 -30 -42 -43 -7
-149 59 -177 37 -16 47 -17 61 -6 15 11 44 -1 44 -18 0 -36 -86 -45 -136 -15
-91 55 -125 179 -67 243 20 22 42 23 49 3z m242 -49 c39 -21 79 -65 97 -111
20 -47 22 -145 3 -157 -25 -15 -33 -1 -34 59 -2 76 -31 132 -85 162 -37 21
-48 39 -32 54 10 10 21 9 51 -7z m-230 -403 c26 -53 -1 -162 -50 -204 -50 -44
-68 -10 -24 45 26 32 31 47 32 95 1 58 8 81 24 81 5 0 13 -8 18 -17z m282 -13
c15 -37 28 -47 64 -54 43 -8 55 -24 32 -42 -11 -8 -26 -14 -33 -14 -25 0 -66
-34 -79 -67 -8 -18 -14 -55 -14 -82 0 -55 -16 -74 -37 -46 -28 40 -8 149 37
194 l26 25 -23 35 c-29 42 -31 81 -4 81 11 0 23 -12 31 -30z m-227 -392 c3
-48 1 -75 -6 -80 -17 -10 -36 10 -43 47 -6 32 -8 33 -32 24 -35 -14 -111 -14
-125 0 -19 19 13 43 50 38 22 -3 47 3 76 18 70 37 74 35 80 -47z m245 -135
c43 -14 52 -21 50 -38 -4 -25 -42 -23 -105 5 -32 14 -43 25 -43 41 0 24 5 24
98 -8z"/>
<path d="M1820 2130 c-41 -41 3 -117 59 -104 33 8 51 30 51 64 0 55 -70 80
-110 40z"/>
<path d="M1844 1938 c5 -72 -3 -76 -179 -76 -85 -1 -161 -1 -169 -1 -7 -1 -16
-10 -19 -21 -7 -27 8 -29 200 -27 153 2 164 3 185 24 15 16 24 40 28 78 3 30
4 55 1 56 -48 7 -49 6 -47 -33z"/>
<path d="M2020 1682 c-33 -29 -36 -67 -7 -96 40 -40 107 -13 107 44 0 49 -64
82 -100 52z"/>
<path d="M1763 1646 c-9 -5 -29 -24 -45 -42 l-29 -33 -107 -3 c-99 -3 -107 -4
-107 -23 0 -19 7 -20 118 -20 l118 0 38 40 39 41 76 -1 c75 0 89 6 77 35 -5
12 -24 15 -84 15 -43 0 -86 -4 -94 -9z"/>
<path d="M1831 1329 c-35 -37 -13 -95 40 -104 55 -10 92 71 51 108 -25 23 -67
21 -91 -4z"/>
<path d="M1481 1307 c-5 -5 -7 -16 -4 -26 4 -15 20 -17 141 -15 75 1 140 2
144 3 8 1 6 41 -2 42 -35 5 -273 2 -279 -4z"/>
<path d="M1476 1038 c-7 -27 11 -33 114 -33 l95 -1 42 -43 41 -42 88 3 c83 3
87 4 89 26 2 21 -2 22 -80 22 l-81 0 -38 40 c-21 22 -43 40 -49 41 -7 1 -58 2
-114 3 -89 1 -103 -1 -107 -16z"/>
<path d="M2023 1004 c-7 -3 -17 -21 -23 -40 -11 -32 -10 -38 11 -60 27 -29 62
-31 89 -4 51 51 -8 132 -77 104z"/>
<path d="M1477 729 c-3 -11 -1 -22 5 -25 5 -3 82 -6 170 -6 184 0 195 -4 192
-74 -1 -36 1 -40 22 -40 22 0 24 4 24 52 0 41 -5 59 -24 81 l-24 28 -180 1
c-168 1 -181 0 -185 -17z"/>
<path d="M1823 514 c-19 -19 -23 -31 -18 -52 18 -74 125 -66 125 9 0 60 -64
85 -107 43z"/>
</g>
</svg>
